<svg xmlns="http://www.w3.org/2000/svg" xmlns:xlink="http://www.w3.org/1999/xlink" xmlns:serif="http://www.serif.com/" width="100%" height="100%" viewBox="0 0 158 34" xml:space="preserve" style="fill-rule:evenodd;clip-rule:evenodd;stroke-linejoin:round;stroke-miterlimit:2;">    <g transform="matrix(1,0,0,1,-598.565,-126.963)">        <g transform="matrix(1.33333,0,0,1.33333,641.444,127.096)">            <path d="M0,17.687L5.4,8.091L-3.427,8.11L-6.833,14.108L0.612,14.098L-1.437,17.774L-8.928,17.784L-9.404,17.787C-9.477,17.787 -9.548,17.784 -9.618,17.782L-24.72,17.728L-17.26,4.542L-6.759,4.523L-8.809,8.118L-15.33,8.123L-16.198,9.618L-9.68,9.607L-11.383,12.622L-17.906,12.638L-18.775,14.13L-10.768,14.114L-7.368,8.113C-6.797,7.062 -6.145,6.147 -4.965,5.438C-3.96,4.826 -2.953,4.518 -2.076,4.518L7.417,4.499L8.381,4.499L12.227,4.491L12.327,9.653C12.373,10.221 12.284,10.836 12.246,11.404C12.547,10.573 12.942,9.785 13.421,8.954L15.903,4.485L19.625,4.477L12.211,17.663L8.446,17.668L8.216,10.801C8.216,10.229 8.259,9.664 8.343,9.09C8.04,9.88 7.647,10.711 7.214,11.499L3.722,17.676L0,17.687ZM27.521,14.089C26.341,16.19 24.636,17.641 22.495,17.644L16.669,17.657C14.482,17.657 14.439,16.255 15.616,14.108L19.06,8.069C20.24,5.92 21.902,4.474 24.132,4.469L29.909,4.464C32.137,4.458 32.188,5.858 30.968,8.045L27.521,14.089ZM19.555,14.06L23.624,14.054L27.029,8.056L23.001,8.058L19.555,14.06ZM42.125,9.601L46.503,9.593L47.418,8.015L43.041,8.026L42.125,9.601ZM39.641,14.024L44.018,14.016L44.97,12.308L40.645,12.316L39.641,14.024ZM33.696,17.627L41.154,4.439L50.693,4.426C52.352,4.42 52.837,5.208 51.789,7.046L50.747,8.889C50.265,9.81 49.651,10.243 48.644,10.776C49.353,11.207 49.134,11.778 48.563,12.782L47.564,14.625C47.125,15.37 46.643,16.16 45.899,16.729C44.984,17.341 43.977,17.606 43.189,17.608L33.696,17.627ZM61.08,14.03C59.902,16.133 58.24,17.582 56.053,17.584L50.279,17.595C48.046,17.598 48,16.196 49.223,14.052L52.623,8.007C53.803,5.863 55.506,4.415 57.693,4.412L63.47,4.399C65.703,4.399 65.746,5.798 64.523,7.988L61.08,14.03ZM53.159,14L57.225,13.995L60.633,7.996L56.564,8.001L53.159,14ZM-32.159,17.695L-23.653,3.505L-27.852,3.511L-25.54,0.138L86.214,-0.1L82.808,3.272L82.651,3.272L74.725,10.814L74.254,17.552L69.533,17.562L70.267,12.571L69.39,12.576L64.412,17.571L59.731,17.582L66.848,10.825L67.363,4.393L71.826,4.388L71.093,9.463L72.013,9.463L78.093,3.286L-19.366,3.497L-27.917,17.687L-32.159,17.695Z" style="fill:rgb(67,169,69);fill-rule:nonzero;"></path>        </g>        <g transform="matrix(1.33333,0,0,1.33333,600.633,160.775)">            <path d="M0,-5.509C0.479,-5.509 0.861,-5.382 1.145,-5.13C1.41,-4.884 1.54,-4.572 1.54,-4.196L1.54,-3.395C1.54,-3.035 1.394,-2.724 1.091,-2.461C0.791,-2.204 0.425,-2.077 0,-2.077L-0.568,-2.077L-0.568,0L-1.551,0L-1.551,-5.509L0,-5.509ZM0.587,-4.18C0.587,-4.326 0.536,-4.44 0.433,-4.529C0.33,-4.616 0.195,-4.662 0.027,-4.662L-0.568,-4.662L-0.568,-2.9L0.027,-2.9C0.184,-2.9 0.314,-2.946 0.422,-3.038C0.536,-3.132 0.587,-3.246 0.587,-3.376L0.587,-4.18Z" style="fill:rgb(43,40,41);fill-rule:nonzero;"></path>        </g>        <g transform="matrix(1.33333,0,0,1.33333,604.676,155.115)">            <path d="M0,2.98L-0.235,4.244L-1.261,4.244L-0.154,-1.264L1.202,-1.264L2.293,4.244L1.259,4.244L1.029,2.98L0,2.98ZM0.517,-0.006L0.154,2.168L0.885,2.168L0.517,-0.006Z" style="fill:rgb(43,40,41);fill-rule:nonzero;"></path>        </g>        <g transform="matrix(1.33333,0,0,1.33333,610.999,160.775)">            <path d="M0,-5.509C0.547,-5.509 0.95,-5.382 1.207,-5.13C1.435,-4.903 1.548,-4.594 1.548,-4.196L1.548,-3.395C1.548,-3.005 1.37,-2.677 1.021,-2.404L1.751,0L0.687,0L0.089,-2.077L-0.566,-2.077L-0.566,0L-1.548,0L-1.548,-5.509L0,-5.509ZM0.59,-4.18C0.59,-4.502 0.401,-4.662 0.03,-4.662L-0.566,-4.662L-0.566,-2.9L0.03,-2.9C0.187,-2.9 0.317,-2.946 0.425,-3.038C0.533,-3.132 0.59,-3.246 0.59,-3.376L0.59,-4.18Z" style="fill:rgb(43,40,41);fill-rule:nonzero;"></path>        </g>        <g transform="matrix(1.33333,0,0,1.33333,615.519,159.659)">            <path d="M0,-3.836L-1.045,-3.836L-1.045,-4.672L2.022,-4.672L2.022,-3.836L0.985,-3.836L0.985,0.836L0,0.836L0,-3.836Z" style="fill:rgb(43,40,41);fill-rule:nonzero;"></path>        </g>        <g transform="matrix(1.33333,0,0,1.33333,620.845,160.775)">            <path d="M0,-5.517L1.302,-1.809L1.302,-5.517L2.285,-5.517L2.285,0L1.229,0L-0.122,-3.53L-0.122,0L-1.107,0L-1.107,-5.517L0,-5.517Z" style="fill:rgb(43,40,41);fill-rule:nonzero;"></path>        </g>        <g transform="matrix(1.33333,0,0,1.33333,625.165,153.419)">            <path d="M0,5.517L0,0L2.799,0L2.799,0.84L0.983,0.84L0.983,2.344L2.309,2.344L2.309,3.181L0.983,3.181L0.983,4.678L2.799,4.678L2.799,5.517L0,5.517Z" style="fill:rgb(43,40,41);fill-rule:nonzero;"></path>        </g>        <g transform="matrix(1.33333,0,0,1.33333,631.965,160.775)">            <path d="M0,-5.509C0.547,-5.509 0.95,-5.382 1.205,-5.13C1.432,-4.903 1.546,-4.594 1.546,-4.196L1.546,-3.395C1.546,-3.005 1.367,-2.677 1.021,-2.404L1.749,0L0.685,0L0.089,-2.077L-0.568,-2.077L-0.568,0L-1.551,0L-1.551,-5.509L0,-5.509ZM0.587,-4.18C0.587,-4.502 0.398,-4.662 0.024,-4.662L-0.568,-4.662L-0.568,-2.9L0.024,-2.9C0.184,-2.9 0.317,-2.946 0.422,-3.038C0.533,-3.132 0.587,-3.246 0.587,-3.376L0.587,-4.18Z" style="fill:rgb(43,40,41);fill-rule:nonzero;"></path>        </g>        <g transform="matrix(1.33333,0,0,1.33333,639.364,160.775)">            <path d="M0,-5.509C0.477,-5.509 0.858,-5.382 1.145,-5.13C1.405,-4.884 1.54,-4.572 1.54,-4.196L1.54,-3.395C1.54,-3.035 1.386,-2.724 1.088,-2.461C0.788,-2.204 0.425,-2.077 0,-2.077L-0.568,-2.077L-0.568,0L-1.551,0L-1.551,-5.509L0,-5.509ZM0.587,-4.18C0.587,-4.326 0.533,-4.44 0.433,-4.529C0.33,-4.616 0.192,-4.662 0.024,-4.662L-0.568,-4.662L-0.568,-2.9L0.024,-2.9C0.181,-2.9 0.314,-2.946 0.422,-3.038C0.531,-3.132 0.587,-3.246 0.587,-3.376L0.587,-4.18Z" style="fill:rgb(43,40,41);fill-rule:nonzero;"></path>        </g>        <g transform="matrix(1.33333,0,0,1.33333,642.563,153.419)">            <path d="M0,5.517L0,0L2.799,0L2.799,0.84L0.983,0.84L0.983,2.344L2.312,2.344L2.312,3.181L0.983,3.181L0.983,4.678L2.799,4.678L2.799,5.517L0,5.517Z" style="fill:rgb(43,40,41);fill-rule:nonzero;"></path>        </g>        <g transform="matrix(1.33333,0,0,1.33333,649.363,160.775)">            <path d="M0,-5.509C0.547,-5.509 0.95,-5.382 1.207,-5.13C1.429,-4.903 1.546,-4.594 1.546,-4.196L1.546,-3.395C1.546,-3.005 1.37,-2.677 1.018,-2.404L1.749,0L0.685,0L0.089,-2.077L-0.568,-2.077L-0.568,0L-1.551,0L-1.551,-5.509L0,-5.509ZM0.585,-4.18C0.585,-4.502 0.398,-4.662 0.024,-4.662L-0.568,-4.662L-0.568,-2.9L0.024,-2.9C0.181,-2.9 0.314,-2.946 0.422,-3.038C0.533,-3.132 0.585,-3.246 0.585,-3.376L0.585,-4.18Z" style="fill:rgb(43,40,41);fill-rule:nonzero;"></path>        </g>        <g transform="matrix(1.33333,0,0,1.33333,0,-830.995)">            <rect x="491.017" y="738.318" width="0.985" height="5.508" style="fill:rgb(43,40,41);"></rect>        </g>        <g transform="matrix(1.33333,0,0,1.33333,660.851,153.429)">            <path d="M0,5.509L-2.683,5.509L-2.683,0L-1.7,0L-1.7,4.684L0,4.684L0,5.509Z" style="fill:rgb(43,40,41);fill-rule:nonzero;"></path>        </g>        <g transform="matrix(1.33333,0,0,1.33333,664.925,153.347)">            <path d="M0,5.638C-0.43,5.638 -0.799,5.513 -1.102,5.254C-1.41,4.999 -1.559,4.688 -1.559,4.328L-1.559,1.318C-1.559,0.952 -1.405,0.638 -1.102,0.384C-0.799,0.129 -0.428,0 0,0C0.433,0 0.804,0.129 1.104,0.384C1.405,0.644 1.559,0.955 1.559,1.318L1.559,1.946L0.539,1.946L0.539,1.302C0.539,1.169 0.482,1.055 0.371,0.961C0.26,0.871 0.127,0.825 -0.03,0.825C-0.184,0.825 -0.317,0.871 -0.428,0.961C-0.539,1.055 -0.59,1.169 -0.59,1.302L-0.59,4.317C-0.59,4.447 -0.539,4.561 -0.428,4.653C-0.317,4.745 -0.184,4.791 -0.03,4.791C0.127,4.791 0.26,4.745 0.371,4.653C0.482,4.561 0.539,4.447 0.539,4.317L0.539,3.554L1.559,3.554L1.559,4.328C1.559,4.693 1.405,5.002 1.099,5.259C0.796,5.513 0.43,5.638 0,5.638" style="fill:rgb(43,40,41);fill-rule:nonzero;"></path>        </g>        <g transform="matrix(1.33333,0,0,1.33333,670.231,160.861)">            <path d="M0,-5.647C0.433,-5.647 0.799,-5.517 1.107,-5.26C1.408,-4.997 1.562,-4.689 1.562,-4.326L1.562,-1.318C1.562,-0.953 1.408,-0.642 1.099,-0.385C0.796,-0.127 0.428,0 0,0C-0.436,0 -0.801,-0.127 -1.104,-0.387C-1.408,-0.647 -1.556,-0.953 -1.556,-1.318L-1.556,-4.326C-1.556,-4.689 -1.405,-5.005 -1.102,-5.26C-0.793,-5.517 -0.43,-5.647 0,-5.647M0.536,-4.345C0.536,-4.475 0.479,-4.586 0.371,-4.68C0.26,-4.772 0.13,-4.816 -0.027,-4.816C-0.184,-4.816 -0.319,-4.772 -0.43,-4.68C-0.539,-4.586 -0.593,-4.475 -0.593,-4.345L-0.593,-1.327C-0.593,-1.197 -0.539,-1.083 -0.43,-0.991C-0.319,-0.902 -0.184,-0.853 -0.027,-0.853C0.13,-0.853 0.26,-0.902 0.371,-0.991C0.479,-1.083 0.536,-1.197 0.536,-1.327L0.536,-4.345Z" style="fill:rgb(43,40,41);fill-rule:nonzero;"></path>        </g>        <g transform="matrix(1.33333,0,0,1.33333,675.032,160.775)">            <path d="M0,-5.517L1.307,-1.809L1.307,-5.517L2.287,-5.517L2.287,0L1.234,0L-0.119,-3.53L-0.119,0L-1.102,0L-1.102,-5.517L0,-5.517Z" style="fill:rgb(43,40,41);fill-rule:nonzero;"></path>        </g>        <g transform="matrix(1.33333,0,0,1.33333,680.669,153.419)">            <path d="M0,5.517L-0.988,5.517L-0.988,0L1.813,0L1.813,0.84L0,0.84L0,2.344L1.323,2.344L1.323,3.181L0,3.181L0,5.517Z" style="fill:rgb(43,40,41);fill-rule:nonzero;"></path>        </g>        <g transform="matrix(1.33333,0,0,1.33333,684.091,153.419)">            <path d="M0,5.517L0,0L2.793,0L2.793,0.84L0.982,0.84L0.982,2.344L2.306,2.344L2.306,3.181L0.982,3.181L0.982,4.678L2.793,4.678L2.793,5.517L0,5.517Z" style="fill:rgb(43,40,41);fill-rule:nonzero;"></path>        </g>        <g transform="matrix(1.33333,0,0,1.33333,692.648,160.775)">            <path d="M0,-5.509L0,-4.673L-1.811,-0.826L0,-0.826L0,0L-2.869,0L-2.869,-0.837L-1.056,-4.678L-2.869,-4.673L-2.869,-5.509L0,-5.509Z" style="fill:rgb(43,40,41);fill-rule:nonzero;"></path>        </g>        <g transform="matrix(1.33333,0,0,1.33333,0,-830.995)">            <rect x="520.376" y="738.318" width="0.983" height="5.508" style="fill:rgb(43,40,41);"></rect>        </g>        <g transform="matrix(1.33333,0,0,1.33333,698.481,160.861)">            <path d="M0,-5.647C0.433,-5.647 0.801,-5.517 1.104,-5.26C1.408,-4.997 1.562,-4.689 1.562,-4.326L1.562,-1.318C1.562,-0.953 1.405,-0.642 1.104,-0.385C0.799,-0.127 0.428,0 0,0C-0.436,0 -0.804,-0.127 -1.102,-0.387C-1.405,-0.647 -1.556,-0.953 -1.556,-1.318L-1.556,-4.326C-1.556,-4.689 -1.402,-5.005 -1.099,-5.26C-0.796,-5.517 -0.428,-5.647 0,-5.647M0.533,-4.345C0.533,-4.475 0.479,-4.586 0.371,-4.68C0.263,-4.772 0.13,-4.816 -0.027,-4.816C-0.184,-4.816 -0.314,-4.772 -0.428,-4.68C-0.539,-4.586 -0.593,-4.475 -0.593,-4.345L-0.593,-1.327C-0.593,-1.197 -0.539,-1.083 -0.428,-0.991C-0.314,-0.902 -0.184,-0.853 -0.027,-0.853C0.13,-0.853 0.263,-0.902 0.371,-0.991C0.479,-1.083 0.533,-1.197 0.533,-1.327L0.533,-4.345Z" style="fill:rgb(43,40,41);fill-rule:nonzero;"></path>        </g>        <g transform="matrix(1.33333,0,0,1.33333,703.285,160.775)">            <path d="M0,-5.517L1.305,-1.809L1.305,-5.517L2.287,-5.517L2.287,0L1.229,0L-0.122,-3.53L-0.122,0L-1.107,0L-1.107,-5.517L0,-5.517Z" style="fill:rgb(43,40,41);fill-rule:nonzero;"></path>        </g>        <g transform="matrix(1.33333,0,0,1.33333,709.208,155.115)">            <path d="M0,2.98L-0.236,4.244L-1.259,4.244L-0.152,-1.264L1.202,-1.264L2.295,4.244L1.261,4.244L1.031,2.98L0,2.98ZM0.522,-0.006L0.154,2.168L0.882,2.168L0.522,-0.006Z" style="fill:rgb(43,40,41);fill-rule:nonzero;"></path>        </g>        <g transform="matrix(1.33333,0,0,1.33333,714.78,153.419)">            <path d="M0,5.517L-0.985,5.517L-0.985,0L0.428,0L1.343,3.963L2.222,0L3.579,0L3.579,5.517L2.596,5.517L2.596,2.049L1.743,5.517L0.95,5.517L0,2.06L0,5.517Z" style="fill:rgb(43,40,41);fill-rule:nonzero;"></path>        </g>        <g transform="matrix(1.33333,0,0,1.33333,720.825,153.419)">            <path d="M0,5.517L0,0L2.799,0L2.799,0.84L0.983,0.84L0.983,2.344L2.309,2.344L2.309,3.181L0.983,3.181L0.983,4.678L2.799,4.678L2.799,5.517L0,5.517Z" style="fill:rgb(43,40,41);fill-rule:nonzero;"></path>        </g>        <g transform="matrix(1.33333,0,0,1.33333,727.027,160.775)">            <path d="M0,-5.517L1.307,-1.809L1.307,-5.517L2.29,-5.517L2.29,0L1.232,0L-0.119,-3.53L-0.119,0L-1.099,0L-1.099,-5.517L0,-5.517Z" style="fill:rgb(43,40,41);fill-rule:nonzero;"></path>        </g>        <g transform="matrix(1.33333,0,0,1.33333,732.624,159.659)">            <path d="M0,-3.836L-1.045,-3.836L-1.045,-4.672L2.025,-4.672L2.025,-3.836L0.985,-3.836L0.985,0.836L0,0.836L0,-3.836Z" style="fill:rgb(43,40,41);fill-rule:nonzero;"></path>        </g>        <g transform="matrix(1.33333,0,0,1.33333,738.4,160.861)">            <path d="M0,-5.647C0.436,-5.647 0.801,-5.517 1.107,-5.26C1.41,-4.997 1.559,-4.689 1.559,-4.326L1.559,-1.318C1.559,-0.953 1.41,-0.642 1.104,-0.385C0.801,-0.127 0.43,0 0,0C-0.433,0 -0.801,-0.127 -1.102,-0.387C-1.405,-0.647 -1.554,-0.953 -1.554,-1.318L-1.554,-4.326C-1.554,-4.689 -1.402,-5.005 -1.099,-5.26C-0.793,-5.517 -0.428,-5.647 0,-5.647M0.539,-4.345C0.539,-4.475 0.482,-4.586 0.371,-4.68C0.262,-4.772 0.13,-4.816 -0.024,-4.816C-0.184,-4.816 -0.311,-4.772 -0.428,-4.68C-0.539,-4.586 -0.593,-4.475 -0.593,-4.345L-0.593,-1.327C-0.593,-1.197 -0.539,-1.083 -0.428,-0.991C-0.311,-0.902 -0.184,-0.853 -0.024,-0.853C0.13,-0.853 0.262,-0.902 0.371,-0.991C0.482,-1.083 0.539,-1.197 0.539,-1.327L0.539,-4.345Z" style="fill:rgb(43,40,41);fill-rule:nonzero;"></path>        </g>    </g></svg>