<svg xmlns="http://www.w3.org/2000/svg" viewBox="0 0 512 512" role="img" aria-label="Stampa">
  <defs>
    <radialGradient id="glow" cx="30%" cy="28%" r="80%">
      <stop offset="0%" stop-color="#1f2937" />
      <stop offset="55%" stop-color="#0f172a" />
      <stop offset="100%" stop-color="#030712" />
    </radialGradient>
    <linearGradient id="box" x1="0%" x2="0%" y1="0%" y2="100%">
      <stop offset="0%" stop-color="#b5f377" />
      <stop offset="100%" stop-color="#54c44a" />
    </linearGradient>
    <linearGradient id="pencil" x1="0%" x2="100%" y1="0%" y2="0%">
      <stop offset="0%" stop-color="#b6f162" />
      <stop offset="40%" stop-color="#89d847" />
      <stop offset="100%" stop-color="#53b94a" />
    </linearGradient>
  </defs>
  <circle cx="256" cy="256" r="240" fill="url(#glow)" stroke="#111827" stroke-width="10" />
  <path d="M188 170 256 142l68 28-68 36z" fill="#89ef52" stroke="#0e7a24" stroke-width="8" stroke-linejoin="round" />
  <path d="M190 180v112l66 32V212z" fill="url(#box)" stroke="#0e7a24" stroke-width="10" stroke-linejoin="round" />
  <path d="M322 180v112l-66 32V212z" fill="url(#box)" stroke="#0e7a24" stroke-width="10" stroke-linejoin="round" />
  <path d="M168 198v130l88 44 88-44V198l-36 18v96l-52 26-52-26v-96z" fill="#c7f9a5" stroke="#0e7a24" stroke-width="10" stroke-linejoin="round" />
  <path d="M330 148c10-5 22-2 27 8l27 52c5 10 1 22-9 27l-48 24c-10 5-22 2-27-8l-27-52c-5-10-1-22 9-27z" fill="#0b3714" opacity="0.4" />
  <path d="m324 144 64 32-140 180-62-30z" fill="#e5f9d1" stroke="#0c6f30" stroke-width="12" stroke-linejoin="round" />
  <path d="m240 330 58 28 14-52-52-26z" fill="#0c6f30" />
  <path d="m252 288 52 26 56-70-52-26z" fill="#0f9d45" />
  <path d="M350 186c-4-8-1-17 7-21s17-1 21 7c4 8 1 17-7 21-8 4-17 1-21-7z" fill="#f1ffe1" stroke="#0c6f30" stroke-width="8" />
  <path d="m234 338 28 14 14-52-28-14z" fill="#f0fff2" stroke="#0c6f30" stroke-width="10" stroke-linejoin="round" />
  <path d="m328 180 60 30-12 15-59-30z" fill="#52c64c" />
  <path d="M288 286 360 164" stroke="#0b5a2c" stroke-width="10" stroke-linecap="round" />
  <path d="m264 352 16 8c6 3 13 0 15-6l14-52c1-3 0-6-3-7l-21-10z" fill="#224b1f" />
  <path d="m252 340 10-35 40 20-10 35c-2 6-9 9-15 6l-25-12c-6-3-9-9-6-14z" fill="url(#pencil)" stroke="#0f7a2a" stroke-width="8" stroke-linejoin="round" />
  <circle cx="200" cy="358" r="24" fill="#020617" opacity="0.35" />
</svg>
