<svg xmlns="http://www.w3.org/2000/svg" viewBox="0 0 24 24" role="img" aria-label="Stampa" fill="none">
  <circle cx="12" cy="12" r="10" fill="#000000" />
  <path fill="#ffffff" fill-rule="evenodd" clip-rule="evenodd" d="M14.82 4.18c.53-.53 1.39-.53 1.92 0l.08.08c.53.53.53 1.39 0 1.92l-3.6 3.6-.77-.77 3.6-3.6c.53-.53.53-1.39 0-1.92l-.08-.08c-.53-.53-1.39-.53-1.92 0l-3.6 3.6-1.15-1.15c-.3-.3-.78-.3-1.08 0l-1.1 1.1c-.31.31-.31.82 0 1.13l3.9 3.9c.31.31.82.31 1.13 0l1.1-1.1c.3-.3.3-.78 0-1.08l-1.15-1.15 3.6-3.6ZM6.5 13.75c0-.41.33-.75.75-.75h1.5c1.38 0 2.5 1.12 2.5 2.5v.5c0 1.1-.9 2-2 2h-.25c-.27 0-.5.22-.5.5 0 .41-.34.75-.75.75S6.5 19.66 6.5 19c0-1.1.9-2 2-2h.25c.27 0 .5-.23.5-.5v-.5c0-.55-.45-1-1-1H7.25a.75.75 0 0 1-.75-.75Z"/>
</svg>
