<svg xmlns="http://www.w3.org/2000/svg" viewBox="0 0 24 24" role="img" aria-label="Stampa" fill="none">
  <circle cx="12" cy="12" r="10" fill="#0b1224" />
  <path fill-rule="evenodd" clip-rule="evenodd" d="M14.89 6.76a.9.9 0 0 1 .56.84v.55a.9.9 0 0 1-.27.65l-.99 1c-.24.24-.32.59-.2.9l.2.53a1 1 0 0 1-.06.87l-2.2 3.53a1.65 1.65 0 0 1-2.83-.05l-.16-.28a1 1 0 0 1 .12-1.17l2.88-3.16c.17-.19.23-.46.15-.7l-.21-.64a1 1 0 0 1 .2-.94l1.89-2a.9.9 0 0 1 .72-.31zm-5.66 9.03-1.06 1.86a.28.28 0 0 0 .24.43l2.06-.13-1.24-2.16z" fill="#ffffff"/>
</svg>
