<svg xmlns="http://www.w3.org/2000/svg" viewBox="0 0 100 100" role="img" aria-label="Stampa" fill="none">
  <circle cx="50" cy="50" r="50" fill="#dc2626" />
  <path fill="#ffffff" fill-rule="evenodd" clip-rule="evenodd" d="M69.68 28.52c2.71-2.71 7.1-2.71 9.8 0l1.76 1.76c2.71 2.71 2.71 7.1 0 9.8L55.3 66.01l-12.72 3.95 3.95-12.72 23.15-23.15Zm-24.94 31.6-2.43 7.84 7.84-2.43-5.41-5.41ZM44.1 66.9c-3.2-.59-6.54.72-8.68 3.62-.97 1.31-1.66 2.9-1.89 4.67-.24 1.93-.97 3.73-2.31 5.34-1.43 1.73-3.63 3.21-7.01 4.33 5.95 1.18 10.71.58 14.26-1.71 3.42-2.14 5.75-5.74 6.36-9.77.26-1.58 1.18-2.96 2.52-4 1.07-.82 2.39-.93 3.68-.78a6.91 6.91 0 0 0-6.93-1.7Z"/>
</svg>
